<mxfile host="app.diagrams.net" agent="Mozilla/5.0 (Macintosh; Intel Mac OS X 10_15_7) AppleWebKit/537.36 (KHTML, like Gecko) Chrome/137.0.0.0 Safari/537.36" version="27.1.5">
  <diagram name="Page-1" id="MnSyCC21sY5OI805uBqv">
    <mxGraphModel dx="772" dy="452" grid="1" gridSize="10" guides="1" tooltips="1" connect="1" arrows="1" fold="1" page="1" pageScale="1" pageWidth="850" pageHeight="1100" math="0" shadow="0">
      <root>
        <mxCell id="0" />
        <mxCell id="1" parent="0" />
        <mxCell id="1n4Irk2fhrzzGr3Gj0kl-3" value="" style="edgeStyle=orthogonalEdgeStyle;rounded=0;orthogonalLoop=1;jettySize=auto;html=1;fontSize=8;" edge="1" parent="1" source="1n4Irk2fhrzzGr3Gj0kl-1" target="1n4Irk2fhrzzGr3Gj0kl-2">
          <mxGeometry relative="1" as="geometry" />
        </mxCell>
        <mxCell id="1n4Irk2fhrzzGr3Gj0kl-52" value="" style="edgeStyle=orthogonalEdgeStyle;rounded=0;orthogonalLoop=1;jettySize=auto;html=1;fontSize=8;" edge="1" parent="1" source="1n4Irk2fhrzzGr3Gj0kl-1" target="1n4Irk2fhrzzGr3Gj0kl-51">
          <mxGeometry relative="1" as="geometry" />
        </mxCell>
        <mxCell id="1n4Irk2fhrzzGr3Gj0kl-1" value="market data service" style="outlineConnect=0;dashed=0;verticalLabelPosition=bottom;verticalAlign=top;align=center;html=1;shape=mxgraph.aws3.lambda_function;fillColor=#F58534;gradientColor=none;fontSize=8;" vertex="1" parent="1">
          <mxGeometry x="200" y="390" width="40" height="40" as="geometry" />
        </mxCell>
        <mxCell id="1n4Irk2fhrzzGr3Gj0kl-5" value="" style="edgeStyle=orthogonalEdgeStyle;rounded=0;orthogonalLoop=1;jettySize=auto;html=1;fontSize=8;" edge="1" parent="1" source="1n4Irk2fhrzzGr3Gj0kl-2" target="1n4Irk2fhrzzGr3Gj0kl-4">
          <mxGeometry relative="1" as="geometry" />
        </mxCell>
        <mxCell id="1n4Irk2fhrzzGr3Gj0kl-2" value="SQS" style="sketch=0;points=[[0,0,0],[0.25,0,0],[0.5,0,0],[0.75,0,0],[1,0,0],[0,1,0],[0.25,1,0],[0.5,1,0],[0.75,1,0],[1,1,0],[0,0.25,0],[0,0.5,0],[0,0.75,0],[1,0.25,0],[1,0.5,0],[1,0.75,0]];outlineConnect=0;fontColor=#232F3E;fillColor=#E7157B;strokeColor=#ffffff;dashed=0;verticalLabelPosition=bottom;verticalAlign=top;align=center;html=1;fontSize=8;fontStyle=0;aspect=fixed;shape=mxgraph.aws4.resourceIcon;resIcon=mxgraph.aws4.sqs;" vertex="1" parent="1">
          <mxGeometry x="280" y="390" width="40" height="40" as="geometry" />
        </mxCell>
        <mxCell id="1n4Irk2fhrzzGr3Gj0kl-25" value="" style="edgeStyle=orthogonalEdgeStyle;rounded=0;orthogonalLoop=1;jettySize=auto;html=1;fontSize=8;" edge="1" parent="1" source="1n4Irk2fhrzzGr3Gj0kl-4" target="1n4Irk2fhrzzGr3Gj0kl-24">
          <mxGeometry relative="1" as="geometry" />
        </mxCell>
        <mxCell id="1n4Irk2fhrzzGr3Gj0kl-42" style="edgeStyle=orthogonalEdgeStyle;rounded=0;orthogonalLoop=1;jettySize=auto;html=1;exitX=0.5;exitY=0;exitDx=0;exitDy=0;exitPerimeter=0;fontSize=8;" edge="1" parent="1" source="1n4Irk2fhrzzGr3Gj0kl-4" target="1n4Irk2fhrzzGr3Gj0kl-12">
          <mxGeometry relative="1" as="geometry">
            <Array as="points">
              <mxPoint x="380" y="360" />
              <mxPoint x="465" y="360" />
            </Array>
          </mxGeometry>
        </mxCell>
        <mxCell id="1n4Irk2fhrzzGr3Gj0kl-4" value="notification service" style="outlineConnect=0;dashed=0;verticalLabelPosition=bottom;verticalAlign=top;align=center;html=1;shape=mxgraph.aws3.lambda_function;fillColor=#F58534;gradientColor=none;fontSize=8;" vertex="1" parent="1">
          <mxGeometry x="360" y="390" width="40" height="40" as="geometry" />
        </mxCell>
        <mxCell id="1n4Irk2fhrzzGr3Gj0kl-14" value="" style="edgeStyle=orthogonalEdgeStyle;rounded=0;orthogonalLoop=1;jettySize=auto;html=1;fontSize=8;" edge="1" parent="1" source="1n4Irk2fhrzzGr3Gj0kl-7" target="1n4Irk2fhrzzGr3Gj0kl-12">
          <mxGeometry relative="1" as="geometry" />
        </mxCell>
        <mxCell id="1n4Irk2fhrzzGr3Gj0kl-7" value="user preference service" style="outlineConnect=0;dashed=0;verticalLabelPosition=bottom;verticalAlign=top;align=center;html=1;shape=mxgraph.aws3.lambda_function;fillColor=#F58534;gradientColor=none;fontSize=8;" vertex="1" parent="1">
          <mxGeometry x="350" y="280" width="40" height="40" as="geometry" />
        </mxCell>
        <mxCell id="1n4Irk2fhrzzGr3Gj0kl-13" value="" style="edgeStyle=orthogonalEdgeStyle;rounded=0;orthogonalLoop=1;jettySize=auto;html=1;fontSize=8;" edge="1" parent="1" source="1n4Irk2fhrzzGr3Gj0kl-12" target="1n4Irk2fhrzzGr3Gj0kl-7">
          <mxGeometry relative="1" as="geometry" />
        </mxCell>
        <mxCell id="1n4Irk2fhrzzGr3Gj0kl-12" value="user-stock subscription&amp;nbsp;" style="verticalLabelPosition=bottom;html=1;verticalAlign=top;align=center;strokeColor=none;fillColor=#00BEF2;shape=mxgraph.azure.sql_database;fontSize=8;" vertex="1" parent="1">
          <mxGeometry x="450" y="282.5" width="30" height="35" as="geometry" />
        </mxCell>
        <mxCell id="1n4Irk2fhrzzGr3Gj0kl-54" value="" style="edgeStyle=orthogonalEdgeStyle;rounded=0;orthogonalLoop=1;jettySize=auto;html=1;" edge="1" parent="1" source="1n4Irk2fhrzzGr3Gj0kl-18" target="1n4Irk2fhrzzGr3Gj0kl-53">
          <mxGeometry relative="1" as="geometry" />
        </mxCell>
        <mxCell id="1n4Irk2fhrzzGr3Gj0kl-18" value="" style="aspect=fixed;sketch=0;html=1;dashed=0;whitespace=wrap;verticalLabelPosition=bottom;verticalAlign=top;fillColor=#2875E2;strokeColor=#ffffff;points=[[0.005,0.63,0],[0.1,0.2,0],[0.9,0.2,0],[0.5,0,0],[0.995,0.63,0],[0.72,0.99,0],[0.5,1,0],[0.28,0.99,0]];shape=mxgraph.kubernetes.icon2;kubernetesLabel=1;prIcon=user;fontSize=8;" vertex="1" parent="1">
          <mxGeometry x="190" y="280" width="41.67" height="40" as="geometry" />
        </mxCell>
        <mxCell id="1n4Irk2fhrzzGr3Gj0kl-47" value="" style="edgeStyle=orthogonalEdgeStyle;rounded=0;orthogonalLoop=1;jettySize=auto;html=1;entryX=-0.017;entryY=0.526;entryDx=0;entryDy=0;entryPerimeter=0;fontSize=8;" edge="1" parent="1" source="1n4Irk2fhrzzGr3Gj0kl-26" target="1n4Irk2fhrzzGr3Gj0kl-43">
          <mxGeometry relative="1" as="geometry" />
        </mxCell>
        <mxCell id="1n4Irk2fhrzzGr3Gj0kl-26" value="channel processor" style="outlineConnect=0;dashed=0;verticalLabelPosition=bottom;verticalAlign=top;align=center;html=1;shape=mxgraph.aws3.lambda_function;fillColor=#5294CF;gradientColor=none;fontSize=8;" vertex="1" parent="1">
          <mxGeometry x="540" y="310" width="30" height="30" as="geometry" />
        </mxCell>
        <mxCell id="1n4Irk2fhrzzGr3Gj0kl-48" value="" style="edgeStyle=orthogonalEdgeStyle;rounded=0;orthogonalLoop=1;jettySize=auto;html=1;fontSize=8;" edge="1" parent="1" source="1n4Irk2fhrzzGr3Gj0kl-27" target="1n4Irk2fhrzzGr3Gj0kl-44">
          <mxGeometry relative="1" as="geometry" />
        </mxCell>
        <mxCell id="1n4Irk2fhrzzGr3Gj0kl-27" value="" style="outlineConnect=0;dashed=0;verticalLabelPosition=bottom;verticalAlign=top;align=center;html=1;shape=mxgraph.aws3.lambda_function;fillColor=#5294CF;gradientColor=none;fontSize=8;" vertex="1" parent="1">
          <mxGeometry x="540" y="360" width="30" height="30" as="geometry" />
        </mxCell>
        <mxCell id="1n4Irk2fhrzzGr3Gj0kl-49" value="" style="edgeStyle=orthogonalEdgeStyle;rounded=0;orthogonalLoop=1;jettySize=auto;html=1;fontSize=8;" edge="1" parent="1" source="1n4Irk2fhrzzGr3Gj0kl-30" target="1n4Irk2fhrzzGr3Gj0kl-45">
          <mxGeometry relative="1" as="geometry" />
        </mxCell>
        <mxCell id="1n4Irk2fhrzzGr3Gj0kl-30" value="" style="outlineConnect=0;dashed=0;verticalLabelPosition=bottom;verticalAlign=top;align=center;html=1;shape=mxgraph.aws3.lambda_function;fillColor=#5294CF;gradientColor=none;fontSize=8;" vertex="1" parent="1">
          <mxGeometry x="540" y="410" width="30" height="30" as="geometry" />
        </mxCell>
        <mxCell id="1n4Irk2fhrzzGr3Gj0kl-50" value="" style="edgeStyle=orthogonalEdgeStyle;rounded=0;orthogonalLoop=1;jettySize=auto;html=1;fontSize=8;" edge="1" parent="1" source="1n4Irk2fhrzzGr3Gj0kl-31" target="1n4Irk2fhrzzGr3Gj0kl-46">
          <mxGeometry relative="1" as="geometry" />
        </mxCell>
        <mxCell id="1n4Irk2fhrzzGr3Gj0kl-31" value="" style="outlineConnect=0;dashed=0;verticalLabelPosition=bottom;verticalAlign=top;align=center;html=1;shape=mxgraph.aws3.lambda_function;fillColor=#5294CF;gradientColor=none;fontSize=8;" vertex="1" parent="1">
          <mxGeometry x="540" y="460" width="30" height="30" as="geometry" />
        </mxCell>
        <mxCell id="1n4Irk2fhrzzGr3Gj0kl-34" value="" style="endArrow=classic;html=1;rounded=0;fontSize=8;" edge="1" parent="1" target="1n4Irk2fhrzzGr3Gj0kl-26">
          <mxGeometry width="50" height="50" relative="1" as="geometry">
            <mxPoint x="480" y="390" as="sourcePoint" />
            <mxPoint x="530" y="340" as="targetPoint" />
          </mxGeometry>
        </mxCell>
        <mxCell id="1n4Irk2fhrzzGr3Gj0kl-37" value="" style="endArrow=classic;html=1;rounded=0;entryX=0;entryY=0.5;entryDx=0;entryDy=0;entryPerimeter=0;fontSize=8;" edge="1" parent="1" target="1n4Irk2fhrzzGr3Gj0kl-27">
          <mxGeometry width="50" height="50" relative="1" as="geometry">
            <mxPoint x="480" y="410" as="sourcePoint" />
            <mxPoint x="530" y="360" as="targetPoint" />
          </mxGeometry>
        </mxCell>
        <mxCell id="1n4Irk2fhrzzGr3Gj0kl-38" value="" style="endArrow=classic;html=1;rounded=0;entryX=0;entryY=0.5;entryDx=0;entryDy=0;entryPerimeter=0;fontSize=8;" edge="1" parent="1" target="1n4Irk2fhrzzGr3Gj0kl-30">
          <mxGeometry width="50" height="50" relative="1" as="geometry">
            <mxPoint x="480" y="420" as="sourcePoint" />
            <mxPoint x="530" y="370" as="targetPoint" />
          </mxGeometry>
        </mxCell>
        <mxCell id="1n4Irk2fhrzzGr3Gj0kl-39" value="" style="endArrow=classic;html=1;rounded=0;fontSize=8;" edge="1" parent="1" target="1n4Irk2fhrzzGr3Gj0kl-31">
          <mxGeometry width="50" height="50" relative="1" as="geometry">
            <mxPoint x="480" y="430" as="sourcePoint" />
            <mxPoint x="530" y="380" as="targetPoint" />
          </mxGeometry>
        </mxCell>
        <mxCell id="1n4Irk2fhrzzGr3Gj0kl-40" value="" style="edgeStyle=orthogonalEdgeStyle;rounded=0;orthogonalLoop=1;jettySize=auto;html=1;fontSize=8;" edge="1" parent="1" source="1n4Irk2fhrzzGr3Gj0kl-4" target="1n4Irk2fhrzzGr3Gj0kl-24">
          <mxGeometry relative="1" as="geometry">
            <mxPoint x="400" y="410" as="sourcePoint" />
            <mxPoint x="465" y="318" as="targetPoint" />
          </mxGeometry>
        </mxCell>
        <mxCell id="1n4Irk2fhrzzGr3Gj0kl-24" value="notification sns" style="sketch=0;points=[[0,0,0],[0.25,0,0],[0.5,0,0],[0.75,0,0],[1,0,0],[0,1,0],[0.25,1,0],[0.5,1,0],[0.75,1,0],[1,1,0],[0,0.25,0],[0,0.5,0],[0,0.75,0],[1,0.25,0],[1,0.5,0],[1,0.75,0]];outlineConnect=0;fontColor=#232F3E;fillColor=#E7157B;strokeColor=#ffffff;dashed=0;verticalLabelPosition=bottom;verticalAlign=top;align=center;html=1;fontSize=8;fontStyle=0;aspect=fixed;shape=mxgraph.aws4.resourceIcon;resIcon=mxgraph.aws4.sns;" vertex="1" parent="1">
          <mxGeometry x="440" y="390" width="40" height="40" as="geometry" />
        </mxCell>
        <mxCell id="1n4Irk2fhrzzGr3Gj0kl-43" value="" style="html=1;verticalLabelPosition=bottom;align=center;labelBackgroundColor=#ffffff;verticalAlign=top;strokeWidth=2;strokeColor=#0080F0;shadow=0;dashed=0;shape=mxgraph.ios7.icons.mail;fontSize=8;" vertex="1" parent="1">
          <mxGeometry x="612.5" y="316.75" width="30" height="16.5" as="geometry" />
        </mxCell>
        <mxCell id="1n4Irk2fhrzzGr3Gj0kl-44" value="" style="dashed=0;outlineConnect=0;html=1;align=center;labelPosition=center;verticalLabelPosition=bottom;verticalAlign=top;shape=mxgraph.weblogos.sms;fillColor=#48B921;strokeColor=none;fontSize=8;" vertex="1" parent="1">
          <mxGeometry x="612.5" y="360" width="30" height="30" as="geometry" />
        </mxCell>
        <mxCell id="1n4Irk2fhrzzGr3Gj0kl-45" value="" style="sketch=0;pointerEvents=1;shadow=0;dashed=0;html=1;strokeColor=none;fillColor=#505050;labelPosition=center;verticalLabelPosition=bottom;verticalAlign=top;outlineConnect=0;align=center;shape=mxgraph.office.devices.cell_phone_iphone_standalone;fontSize=8;" vertex="1" parent="1">
          <mxGeometry x="620" y="410" width="17.5" height="30" as="geometry" />
        </mxCell>
        <mxCell id="1n4Irk2fhrzzGr3Gj0kl-46" value="" style="points=[];aspect=fixed;html=1;align=center;shadow=0;dashed=0;fillColor=#FF6A00;strokeColor=none;shape=mxgraph.alibaba_cloud.cmp_cloud_mobile_push;fontSize=8;" vertex="1" parent="1">
          <mxGeometry x="612.5" y="462.15" width="35.42" height="25.7" as="geometry" />
        </mxCell>
        <mxCell id="1n4Irk2fhrzzGr3Gj0kl-51" value="market data api" style="aspect=fixed;sketch=0;html=1;dashed=0;whitespace=wrap;verticalLabelPosition=bottom;verticalAlign=top;fillColor=#2875E2;strokeColor=#ffffff;points=[[0.005,0.63,0],[0.1,0.2,0],[0.9,0.2,0],[0.5,0,0],[0.995,0.63,0],[0.72,0.99,0],[0.5,1,0],[0.28,0.99,0]];shape=mxgraph.kubernetes.icon2;kubernetesLabel=1;prIcon=api;fontSize=8;" vertex="1" parent="1">
          <mxGeometry x="198.33" y="480" width="41.67" height="40" as="geometry" />
        </mxCell>
        <mxCell id="1n4Irk2fhrzzGr3Gj0kl-55" value="" style="edgeStyle=orthogonalEdgeStyle;rounded=0;orthogonalLoop=1;jettySize=auto;html=1;" edge="1" parent="1" source="1n4Irk2fhrzzGr3Gj0kl-53" target="1n4Irk2fhrzzGr3Gj0kl-7">
          <mxGeometry relative="1" as="geometry" />
        </mxCell>
        <mxCell id="1n4Irk2fhrzzGr3Gj0kl-53" value="" style="sketch=0;points=[[0,0,0],[0.25,0,0],[0.5,0,0],[0.75,0,0],[1,0,0],[0,1,0],[0.25,1,0],[0.5,1,0],[0.75,1,0],[1,1,0],[0,0.25,0],[0,0.5,0],[0,0.75,0],[1,0.25,0],[1,0.5,0],[1,0.75,0]];outlineConnect=0;fontColor=#232F3E;fillColor=#E7157B;strokeColor=#ffffff;dashed=0;verticalLabelPosition=bottom;verticalAlign=top;align=center;html=1;fontSize=8;fontStyle=0;aspect=fixed;shape=mxgraph.aws4.resourceIcon;resIcon=mxgraph.aws4.api_gateway;" vertex="1" parent="1">
          <mxGeometry x="280" y="286.25" width="27.5" height="27.5" as="geometry" />
        </mxCell>
        <mxCell id="1n4Irk2fhrzzGr3Gj0kl-57" value="" style="outlineConnect=0;dashed=0;verticalLabelPosition=bottom;verticalAlign=top;align=center;html=1;shape=mxgraph.aws3.cache_node;fillColor=#2E73B8;gradientColor=none;" vertex="1" parent="1">
          <mxGeometry x="410" y="344" width="30" height="30" as="geometry" />
        </mxCell>
      </root>
    </mxGraphModel>
  </diagram>
</mxfile>
